<svg id="Layer_1_1_" enable-background="new 0 0 64 64" height="512" viewBox="0 0 64 64" width="512" xmlns="http://www.w3.org/2000/svg"><path d="m58 7h-5v3c0 1.10455-.89545 2-2 2h-2c1.10455 0 2-.89545 2-2v-6c0-1.10461-.89545-2-2-2s-2 .89539-2 2v3h-5v3c0 1.10455-.89545 2-2 2h-2c1.10455 0 2-.89545 2-2v-6c0-1.10461-.89545-2-2-2s-2 .89539-2 2v3h-6v3c0 1.10455-.89545 2-2 2h-2c1.10455 0 2-.89545 2-2v-6c0-1.10461-.89545-2-2-2s-2 .89539-2 2v3h-5v3c0 1.10455-.89545 2-2 2h-2c1.10455 0 2-.89545 2-2v-6c0-1.10461-.89545-2-2-2s-2 .89539-2 2v3h-7c-2.20917 0-4 1.79083-4 4v6h60v-6c0-2.20917-1.79083-4-4-4z"/><path d="m2 56c0 2.20996 1.78998 4 4 4h52c2.21002 0 4-1.79004 4-4v-37h-60zm13 0h-8v-8h8zm-8-14.41406v-5.17188l2.58594 2.58594zm4-1.17188 2.58594 2.58594h-5.17188zm1.41406-1.41406 2.58594-2.58594v5.17188zm16.58594 17h-8v-8h8zm-4-18.41406-2.58594-2.58594h5.17188zm4-1.17188v5.17188l-2.58594-2.58594zm-8 5.17188v-5.17188l2.58594 2.58594zm4-1.17188 2.58594 2.58594h-5.17188zm18 15.58594h-8v-8h8zm-4-18.41406-2.58594-2.58594h5.17188zm4-1.17188v5.17188l-2.58594-2.58594zm-8 5.17188v-5.17188l2.58594 2.58594zm4-1.17188 2.58594 2.58594h-5.17188zm10-18.41406h8v8h-8zm0 13h8v8h-8zm-14-13h8v8h-8zm-14 0h8v8h-8zm-10 15.58594-2.58594-2.58594h5.17188z"/></svg>