<svg xmlns:dc="http://purl.org/dc/elements/1.1/" xmlns:cc="http://creativecommons.org/ns#" xmlns:rdf="http://www.w3.org/1999/02/22-rdf-syntax-ns#" xmlns:svg="http://www.w3.org/2000/svg" xmlns="http://www.w3.org/2000/svg" version="1.1" viewBox="0 0 100 125" xml:space="preserve" x="0px" y="0px"><path d="m 56.125,9.75 c -0.06481,0.00188 -0.121696,0.016415 -0.1875,0.03125 l -10.25,2.3125 c -0.526531,0.118369 -0.86835,0.629775 -0.75,1.15625 l 1.375,6.1875 c -4.865299,2.362563 -8.804902,6.09295 -11.46875,10.59375 L 28.78125,28.125 c -0.515113,-0.160718 -1.058013,0.141025 -1.21875,0.65625 l -3.125,10.03125 c -0.160756,0.515094 0.109869,1.057957 0.625,1.21875 l 6.0625,1.90625 c -0.173226,2.463298 -0.0038,4.998579 0.53125,7.53125 0.109543,-0.0075 0.202919,-0.02431 0.3125,-0.03125 4.24977,-0.469308 8.577451,-0.08005 12.65625,1.125 -0.52163,-1.0571 -0.917558,-2.205428 -1.1875,-3.40625 -1.834041,-8.158743 3.278757,-16.25969 11.4375,-18.09375 1.019859,-0.229265 2.056538,-0.324332 3.0625,-0.34375 7.041679,-0.136098 13.426455,4.673617 15.03125,11.8125 1.442857,6.418431 -1.396423,12.799744 -6.65625,16.125 2.968721,0.342226 5.908137,0.751285 8.75,1.625 1.73479,0.296121 3.23848,1.268549 4.3125,2.59375 0.812211,-1.010319 1.527782,-2.07314 2.1875,-3.1875 l 6.0625,1.875 c 0.515131,0.160737 1.058032,-0.109906 1.21875,-0.625 L 92,48.875 c 0.160756,-0.515075 -0.141081,-1.057994 -0.65625,-1.21875 l -6.0625,-1.875 c 0.181695,-2.577048 0.003,-5.224861 -0.59375,-7.875 -0.595359,-2.648449 -1.546493,-5.124684 -2.8125,-7.375 l 4.65625,-4.3125 c 0.396818,-0.365757 0.428215,-0.978201 0.0625,-1.375 l -7.125,-7.71875 c -0.365776,-0.396837 -0.978237,-0.428181 -1.375,-0.0625 l -4.6875,4.3125 C 69.071651,18.446694 63.909483,16.77124 58.5,16.71875 L 57.09375,10.5 C 56.990179,10.03933 56.578684,9.7408166 56.125,9.75 z M 5,50.53125 5,81.5 l 10.3125,0 0,-30.96875 -10.3125,0 z m 30.4375,1.4375 c -5.977311,-0.0054 -12.30391,1.126499 -17.21875,2.71875 l 0,22 c 1.912635,0.55085 3.389443,0.823621 5.34375,1.21875 5.676289,1.147618 10.429064,5.01608 15.71875,7.34375 4.553554,2.003755 9.063057,4.90781 14.125,5 7.726618,0.140718 15.278339,-1.818804 22.875,-3.03125 6.138574,-0.979727 11.697513,-6.362499 15.8125,-10.8125 3.72722,-4.030685 3.428487,-6.513456 1.59375,-9.3125 -2.057859,-3.13943 -7.14345,-1.26102 -9.84375,1.0625 -3.116349,2.681501 -6.81966,4.828017 -11.09375,5.28125 -6.792057,0.720245 -14.292745,1.055344 -20.1875,-2.78125 2.682253,-1.323905 6.435146,-0.268254 9.53125,-0.25 4.336947,0.02558 8.775339,1.295214 13.03125,0.4375 4.361886,-0.879067 4.698554,-8.238784 0.125,-9.75 C 68.666869,58.918535 61.654438,59.309947 55.0625,57.5625 50.106456,56.248698 45.810797,52.970884 40.625,52.28125 38.958889,52.059703 37.214789,51.970384 35.4375,51.96875 z M 10.15625,74.875 c 1.249913,0 2.28125,1.000087 2.28125,2.25 0,1.249894 -1.031337,2.25 -2.28125,2.25 -1.2499124,0 -2.25,-1.000106 -2.25,-2.25 0,-1.249913 1.0000876,-2.25 2.25,-2.25 z" style="" fill="#000000" fill-opacity="1" fill-rule="evenodd" stroke="none"/><text x="0" y="115" fill="#000000" font-size="5px" font-weight="bold" font-family="'Helvetica Neue', Helvetica, Arial-Unicode, Arial, Sans-serif">Created by ImageCatalog</text><text x="0" y="120" fill="#000000" font-size="5px" font-weight="bold" font-family="'Helvetica Neue', Helvetica, Arial-Unicode, Arial, Sans-serif">from the Noun Project</text></svg>